<?xml version="1.0" encoding="utf-8"?>
<!-- Generator: Adobe Illustrator 25.2.0, SVG Export Plug-In . SVG Version: 6.00 Build 0)  -->
<svg version="1.1" id="Layer_2_1_" xmlns="http://www.w3.org/2000/svg" xmlns:xlink="http://www.w3.org/1999/xlink" x="0px" y="0px"
	 viewBox="0 0 1019.3 203.6" style="enable-background:new 0 0 1019.3 203.6;" xml:space="preserve">
<style type="text/css">
	.st0{fill:#111111;}
	.st1{fill:#F49B00;}
</style>
<path class="st0" d="M484.5,173.1h-17.1v-3.7h38.8v3.7H489v30.1h-4.6V173.1z"/>
<path class="st0" d="M510.6,181.7c0-8.5,2.9-12.7,12-12.7h19.5c9.2,0,12,4.1,12,12.7v9.2c0,8.5-2.9,12.7-12,12.7h-19.5
	c-9.2,0-12-4.1-12-12.7V181.7z M549.6,180c0-5.9-3.6-7.2-7.9-7.2h-18.5c-4.4,0-8,1.3-8,7.2v12.7c0,5.9,3.5,7.2,8,7.2h18.5
	c4.4,0,7.9-1.3,7.9-7.2V180z"/>
<path class="st0" d="M561.5,181.7c0-8.5,2.9-12.7,12-12.7H593c9.2,0,12,4.1,12,12.7v9.2c0,8.5-2.9,12.7-12,12.7h-19.5
	c-9.2,0-12-4.1-12-12.7V181.7z M600.5,180c0-5.9-3.6-7.2-8-7.2H574c-4.4,0-7.9,1.3-7.9,7.2v12.7c0,5.9,3.6,7.2,7.9,7.2h18.5
	c4.4,0,8-1.3,8-7.2L600.5,180z"/>
<path class="st0" d="M613.3,169.4h4.6v30.1h26.2v3.7h-30.8V169.4z"/>
<path class="st0" d="M648.3,192.6h4.3v2.4c0,3.3,1.8,4.9,7.5,4.9h14.2c6.6,0,8.6-1.4,8.6-6.3c0-4.2-1.7-5.3-7.4-5.3h-8.7
	c-14,0-18.5-0.8-18.5-9.8c0-7.7,4.6-9.4,14-9.4h9.9c11.3,0,14.2,2.9,14.2,8.9v1.2h-4.3c-0.1-5.4-0.7-6.4-12.7-6.4h-4.9
	c-8.8,0-12,0.5-12,6c0,4,1.3,5.4,8.4,5.4h13.5c8.9,0,12.7,2.6,12.7,8.3v2.2c0,8.3-6.8,8.9-13.6,8.9h-12.7c-6.7,0-12.6-1.2-12.6-8.5
	L648.3,192.6z"/>
<path class="st0" d="M731.3,173.1h-17.1v-3.7H753v3.7h-17.1v30.1h-4.6V173.1z"/>
<path class="st0" d="M757.5,181.7c0-8.5,2.9-12.7,12-12.7H789c9.2,0,12,4.1,12,12.7v9.2c0,8.5-2.9,12.7-12,12.7h-19.4
	c-9.2,0-12-4.1-12-12.7L757.5,181.7z M796.5,180c0-5.9-3.6-7.2-7.9-7.2h-18.5c-4.4,0-7.9,1.3-7.9,7.2v12.7c0,5.9,3.5,7.2,7.9,7.2
	h18.6c4.4,0,7.9-1.3,7.9-7.2L796.5,180z"/>
<path class="st0" d="M831.9,169.4h28.9c7,0,9,3.6,9,7.5v2.9c0,2.4-1.4,4.9-5.5,5.3v0.2c3.6,0.2,6.8,1.5,6.8,6.7v4
	c0,4.7-4.2,7.2-9.8,7.2h-29.4V169.4z M865.2,176.7c0-3.1-3.4-3.5-4.8-3.5h-23.9V184h23.6c2.5,0,5-0.8,5-4.2L865.2,176.7z
	 M866.5,192.6c0-4.2-2.3-4.9-6.5-4.9h-23.5v11.8h24.2c4.2,0,5.8-1.5,5.8-4.5V192.6z"/>
<path class="st0" d="M879.3,169.4h4.6v25.3c0,3.3,1.1,5.2,7.3,5.2h15.9c6.2,0,7.3-1.9,7.3-5.2v-25.3h4.6v25.3c0,6.9-3.5,8.9-12,8.9
	h-15.7c-8.6,0-12.1-2-12.1-8.9L879.3,169.4z"/>
<path class="st0" d="M928.2,169.4h4.6v33.8h-4.6V169.4z"/>
<path class="st0" d="M942,169.4h4.6v30.1h26.2v3.7H942V169.4z"/>
<path class="st0" d="M977.6,169.4h27.3c11.3,0,14.4,3.5,14.4,16.9c0,12.4-3.1,16.9-14.6,16.9h-27.2L977.6,169.4z M1014.8,184.7
	c0-9.8-3-11.5-8.6-11.5h-24v26.4h23.2c5.6,0,9.4-1.2,9.4-11.4L1014.8,184.7z"/>
<path class="st0" d="M0,0h115.6c28.1,0,35.9,14.6,35.9,30.1v11.6c0,9.7-5.4,19.6-21.9,21.3v0.8c14.4,0.8,27.1,6.2,27.1,26.8v16.1
	c0,18.9-16.8,28.8-39.3,28.8H0V0z M133.2,29.2c0-12.4-13.7-14.2-19.3-14.2H18.3v43.2H113c9.9,0,20.2-3.2,20.2-16.6V29.2z
	 M138.5,92.6c0-16.8-9.4-19.5-26-19.5H18.3v47.4h96.9c17,0,23.2-6.2,23.2-18.1V92.6z"/>
<path class="st0" d="M254.3,0h22.8l80.5,135.5h-20.8L320,106.9H211.5l-16.9,28.6h-20.8L254.3,0z M265.8,15l-45.5,76.9h91L265.8,15z"
	/>
<path class="st0" d="M405.2,15h-68.5V0H492v15h-68.5v120.5h-18.3V15z"/>
<path class="st0" d="M800.1,0h18.3v135.5h-18.3V0z"/>
<path class="st0" d="M916,0h22.8l80.5,135.5h-20.8l-16.8-28.6H873.1l-16.8,28.6h-20.8L916,0z M927.4,15l-45.5,76.9h90.9L927.4,15z"
	/>
<polygon class="st1" points="610.6,0 783.1,0 708.1,135.5 685.6,135.5 "/>
<polygon class="st0" points="639.7,135.5 467.2,135.5 542.2,0 564.7,0 "/>
</svg>
